<svg id="Capa_1" enable-background="new 0 0 512 512" height="512" viewBox="0 0 512 512" width="512" xmlns="http://www.w3.org/2000/svg"><g><g><path d="m323.472 106.609c-4.268 0-7.726-3.459-7.726-7.726v-40.067c0-4.267 3.459-7.726 7.726-7.726s7.726 3.459 7.726 7.726v40.066c0 4.267-3.459 7.727-7.726 7.727z" fill="#fde588"/></g><g><path d="m252.774 129.241c-1.978 0-3.955-.754-5.464-2.263l-27.041-27.042c-3.017-3.017-3.017-7.909 0-10.927 3.019-3.018 7.91-3.017 10.928 0l27.041 27.042c3.017 3.017 3.017 7.909 0 10.927-1.51 1.508-3.487 2.263-5.464 2.263z" fill="#fde588"/></g><g><path d="m200.267 198.191c-.875 0-1.766-.15-2.636-.466l-35.948-13.054c-4.011-1.457-6.083-5.889-4.626-9.9 1.457-4.01 5.889-6.081 9.899-4.625l35.948 13.054c4.011 1.457 6.083 5.889 4.626 9.9-1.141 3.14-4.105 5.091-7.263 5.091z" fill="#fde588"/></g><g><path d="m394.141 129.241c-1.977 0-3.955-.754-5.463-2.263-3.018-3.017-3.018-7.909-.001-10.927l27.04-27.042c3.018-3.017 7.91-3.018 10.927 0 3.018 3.017 3.018 7.909.001 10.927l-27.04 27.042c-1.509 1.508-3.487 2.263-5.464 2.263z" fill="#fde588"/></g><g><path d="m446.676 198.191c-3.159 0-6.123-1.951-7.264-5.091-1.457-4.011.615-8.443 4.626-9.9l35.948-13.054c4.012-1.455 8.443.615 9.899 4.625 1.457 4.011-.615 8.443-4.626 9.9l-35.948 13.054c-.869.316-1.76.466-2.635.466z" fill="#fde588"/></g><g><path clip-rule="evenodd" d="m408.157 242.473c0-46.783-37.904-84.688-84.686-84.688s-84.715 37.905-84.715 84.688c0 7.768 1.051 15.302 3.008 22.457l88.19 20.822 75.195-20.822c1.957-7.155 3.008-14.689 3.008-22.457z" fill="#fde588" fill-rule="evenodd"/></g><g><path clip-rule="evenodd" d="m408.157 242.473c0-46.783-37.904-84.688-84.686-84.688-13.813 0-26.837 3.3-38.372 9.14 38.079 8.323 66.581 42.198 66.581 82.761 0 5.198-.467 10.309-1.343 15.244h54.812c1.957-7.155 3.008-14.689 3.008-22.457z" fill="#fdd76f" fill-rule="evenodd"/></g><g><path clip-rule="evenodd" d="m226.228 302.718c26.399 0 24.033-37.789 0-37.789h-21.902-199.326c-2.761 0-5 2.239-5 5v185.98c0 2.761 2.239 5 5 5h75.189c-18.222 0-18.105-28.765-1.577-28.823l17.142-.058c17.346-.088 17.083-29.933 1.226-31.977h-1.635c-22.894 0-23.917-38.081 4.439-38.081h63.047c24.209 0 19.186-28.823 3.3-28.823h-5.753c-20.179 0-20.354-30.429-.117-30.429h36.298z" fill="#a0ddfa" fill-rule="evenodd"/></g><g><path clip-rule="evenodd" d="m512 455.91v-185.98c0-2.761-2.239-5-5-5h-111.516c24.033 0 26.428 37.789 0 37.789h-29.64-36.298c-20.237 0-20.062 30.429.088 30.429h5.782c15.886 0 20.909 28.823-3.3 28.823h-63.076c-28.326 0-27.304 38.081-4.439 38.081h1.635c15.886 2.044 16.149 31.89-1.197 31.977l-17.171.058c-16.499.058-16.645 28.823 1.577 28.823h257.555c2.761 0 5-2.238 5-5z" fill="#a0ddfa" fill-rule="evenodd"/></g><g><path clip-rule="evenodd" d="m285.626 432.029c17.346-.088 17.112-29.933 1.226-31.977h-1.635c-22.894 0-23.887-38.081 4.439-38.081h63.077c24.179 0 19.186-28.823 3.271-28.823h-5.753c-20.179 0-20.354-30.429-.117-30.429h36.298 29.668c26.399 0 24.033-37.789 0-37.789h-38.138-40.445-80.101-51.805c24.033 0 26.428 37.789 0 37.789h-29.64-36.298c-20.237 0-20.062 30.429.088 30.429h5.782c15.886 0 20.879 28.823-3.3 28.823h-63.076c-28.326 0-27.304 38.081-4.439 38.081h1.635c15.886 2.044 16.12 31.89-1.226 31.977l-17.142.058c-16.499.058-16.645 28.823 1.577 28.823h210.489c-18.222 0-18.105-28.765-1.577-28.823z" fill="#eff6ff" fill-rule="evenodd"/></g><g><path clip-rule="evenodd" d="m486.653 318.955c0 38.46-13.316 109.628-68.566 141.955h88.913c2.761 0 5-2.239 5-5v-185.98c0-2.761-2.239-5-5-5h-31.094c6.979 17.025 10.747 15.594 10.747 54.025z" fill="#75cef9" fill-rule="evenodd"/></g></g></svg>